<svg width="32" height="32" viewBox="0 0 32 32" fill="none" xmlns="http://www.w3.org/2000/svg">
<path fill-rule="evenodd" clip-rule="evenodd" d="M3 7C2.44772 7 2 7.44772 2 8V24C2 24.5523 2.44771 25 3 25H29C29.5523 25 30 24.5523 30 24V8C30 7.44772 29.5523 7 29 7H3ZM28 21.0811C28 20.9535 27.9512 20.8306 27.8635 20.7378L22.227 14.7698C21.8324 14.3519 21.1676 14.3519 20.773 14.7698L17.5858 18.1444L12.7399 12.8139C12.3432 12.3775 11.6568 12.3775 11.2601 12.8139L4.13003 20.657C4.04636 20.749 4 20.8689 4 20.9933V22.5C4 22.7761 4.22386 23 4.5 23H27.5C27.7761 23 28 22.7761 28 22.5V21.0811Z" fill="#2B2B2F"/>
</svg>
