<svg width="28" height="28" viewBox="0 0 28 28" fill="none" xmlns="http://www.w3.org/2000/svg">
<path fill-rule="evenodd" clip-rule="evenodd" d="M7.5 6.83337H20.5C21.4711 6.83337 22.0988 6.8355 22.5613 6.89768C22.995 6.95599 23.131 7.05014 23.2071 7.12627C23.2832 7.20239 23.3774 7.33834 23.4357 7.77208C23.4979 8.23458 23.5 8.8623 23.5 9.83337V18.1667C23.5 19.1378 23.4979 19.7655 23.4357 20.228C23.3774 20.6617 23.2832 20.7977 23.2071 20.8738C23.131 20.9499 22.995 21.0441 22.5613 21.1024C22.0988 21.1646 21.4711 21.1667 20.5 21.1667H7.5C6.52892 21.1667 5.90121 21.1646 5.4387 21.1024C5.00496 21.0441 4.86902 20.9499 4.79289 20.8738C4.71677 20.7977 4.62262 20.6617 4.56431 20.228C4.50212 19.7655 4.5 19.1378 4.5 18.1667V9.83337C4.5 8.86229 4.50212 8.23458 4.56431 7.77208C4.62262 7.33834 4.71677 7.20239 4.79289 7.12627C4.86902 7.05014 5.00496 6.95599 5.4387 6.89768C5.90121 6.8355 6.52892 6.83337 7.5 6.83337ZM3.5 9.83337C3.5 7.94776 3.5 7.00495 4.08579 6.41916C4.67157 5.83337 5.61438 5.83337 7.5 5.83337H20.5C22.3856 5.83337 23.3284 5.83337 23.9142 6.41916C24.5 7.00495 24.5 7.94776 24.5 9.83337V18.1667C24.5 20.0523 24.5 20.9951 23.9142 21.5809C23.3284 22.1667 22.3856 22.1667 20.5 22.1667H7.5C5.61438 22.1667 4.67157 22.1667 4.08579 21.5809C3.5 20.9951 3.5 20.0523 3.5 18.1667V9.83337ZM6.43197 9.23029C6.214 9.06076 5.89986 9.10003 5.73032 9.318C5.56079 9.53597 5.60006 9.85011 5.81803 10.0196L13.0791 15.6671C13.6208 16.0884 14.3792 16.0884 14.9209 15.6671L22.182 10.0196C22.3999 9.85011 22.4392 9.53597 22.2697 9.318C22.1001 9.10003 21.786 9.06076 21.568 9.23029L14.307 14.8778C14.1264 15.0182 13.8736 15.0182 13.693 14.8778L6.43197 9.23029Z" fill="#2B2B2F"/>
</svg>
