<svg width="32" height="32" viewBox="0 0 32 32" fill="none" xmlns="http://www.w3.org/2000/svg">
<g opacity="0.4">
<mask id="path-1-inside-1_557_869" fill="white">
<path fill-rule="evenodd" clip-rule="evenodd" d="M3 7C2.44772 7 2 7.44772 2 8V24C2 24.5523 2.44771 25 3 25H29C29.5523 25 30 24.5523 30 24V8C30 7.44772 29.5523 7 29 7H3ZM28 21.0811C28 20.9535 27.9512 20.8306 27.8635 20.7378L22.227 14.7698C21.8324 14.3519 21.1676 14.3519 20.773 14.7698L17.5858 18.1444L12.7399 12.8139C12.3432 12.3775 11.6568 12.3775 11.2601 12.8139L4.13003 20.657C4.04636 20.749 4 20.8689 4 20.9933V22.5C4 22.7761 4.22386 23 4.5 23H27.5C27.7761 23 28 22.7761 28 22.5V21.0811Z"/>
</mask>
<path d="M27.8635 20.7378L26.4095 22.1111L26.4095 22.1111L27.8635 20.7378ZM22.227 14.7698L23.681 13.3965L23.681 13.3965L22.227 14.7698ZM20.773 14.7698L19.319 13.3965L19.319 13.3965L20.773 14.7698ZM17.5858 18.1444L16.1059 19.4898L17.5578 21.0868L19.0399 19.5177L17.5858 18.1444ZM12.7399 12.8139L14.2198 11.4686L14.2198 11.4686L12.7399 12.8139ZM11.2601 12.8139L9.78018 11.4686L9.78018 11.4686L11.2601 12.8139ZM4.13003 20.657L2.65015 19.3116L2.65015 19.3116L4.13003 20.657ZM4 8C4 8.55228 3.55229 9 3 9V5C1.34314 5 0 6.34315 0 8H4ZM4 24V8H0V24H4ZM3 23C3.55229 23 4 23.4477 4 24H0C0 25.6569 1.34314 27 3 27V23ZM29 23H3V27H29V23ZM28 24C28 23.4477 28.4477 23 29 23V27C30.6569 27 32 25.6569 32 24H28ZM28 8V24H32V8H28ZM29 9C28.4477 9 28 8.55228 28 8H32C32 6.34315 30.6569 5 29 5V9ZM3 9H29V5H3V9ZM26.4095 22.1111C26.1465 21.8326 26 21.4641 26 21.0811H30C30 20.4428 29.7558 19.8287 29.3175 19.3646L26.4095 22.1111ZM20.773 16.143L26.4095 22.1111L29.3175 19.3646L23.681 13.3965L20.773 16.143ZM22.227 16.143C21.8324 16.5609 21.1676 16.5609 20.773 16.143L23.681 13.3965C22.4972 12.143 20.5028 12.143 19.319 13.3965L22.227 16.143ZM19.0399 19.5177L22.227 16.143L19.319 13.3965L16.1318 16.7712L19.0399 19.5177ZM11.2601 14.1593L16.1059 19.4898L19.0657 16.7991L14.2198 11.4686L11.2601 14.1593ZM12.7399 14.1593C12.3432 14.5957 11.6568 14.5957 11.2601 14.1593L14.2198 11.4686C13.0295 10.1593 10.9705 10.1593 9.78018 11.4686L12.7399 14.1593ZM5.60991 22.0023L12.7399 14.1593L9.78018 11.4686L2.65015 19.3116L5.60991 22.0023ZM6 20.9933C6 21.3665 5.86092 21.7262 5.60991 22.0023L2.65015 19.3116C2.23181 19.7718 2 20.3714 2 20.9933H6ZM6 22.5V20.9933H2V22.5H6ZM4.5 21C5.32843 21 6 21.6716 6 22.5H2C2 23.8807 3.11928 25 4.5 25V21ZM27.5 21H4.5V25H27.5V21ZM26 22.5C26 21.6716 26.6716 21 27.5 21V25C28.8807 25 30 23.8807 30 22.5H26ZM26 21.0811V22.5H30V21.0811H26Z" fill="white" mask="url(#path-1-inside-1_557_869)"/>
</g>
</svg>
